<?xml version="1.0" encoding="UTF-8" standalone="no"?>
<!DOCTYPE svg PUBLIC "-//W3C//DTD SVG 1.1//EN"
 "http://www.w3.org/Graphics/SVG/1.1/DTD/svg11.dtd">
<!-- Generated by graphviz version 2.40.1 (20161225.0304)
 -->
<!-- Title: controllers_diagram Pages: 1 -->
<svg width="696pt" height="731pt"
 viewBox="0.00 0.00 696.00 731.00" xmlns="http://www.w3.org/2000/svg" xmlns:xlink="http://www.w3.org/1999/xlink">
<g id="graph0" class="graph" transform="scale(1 1) rotate(0) translate(4 727)">
<title>controllers_diagram</title>
<polygon fill="transparent" stroke="transparent" points="-4,4 -4,-727 692,-727 692,4 -4,4"/>
<!-- _diagram_info -->
<g id="node1" class="node">
<title>_diagram_info</title>
<text text-anchor="start" x="65" y="-120.6" font-family="Times,serif" font-size="13.00" fill="#000000">Controllers diagram</text>
<text text-anchor="start" x="65" y="-106.6" font-family="Times,serif" font-size="13.00" fill="#000000">Date: May 28 2018 &#45; 01:47</text>
<text text-anchor="start" x="65" y="-92.6" font-family="Times,serif" font-size="13.00" fill="#000000">Migration version: 20180527175505</text>
<text text-anchor="start" x="65" y="-78.6" font-family="Times,serif" font-size="13.00" fill="#000000">Generated by RailRoady 1.5.3</text>
<text text-anchor="start" x="65" y="-64.6" font-family="Times,serif" font-size="13.00" fill="#000000">http://railroady.prestonlee.com</text>
</g>
<!-- SessionsController -->
<g id="node2" class="node">
<title>SessionsController</title>
<path fill="none" stroke="#000000" d="M12,-323.5C12,-323.5 140,-323.5 140,-323.5 146,-323.5 152,-329.5 152,-335.5 152,-335.5 152,-449.5 152,-449.5 152,-455.5 146,-461.5 140,-461.5 140,-461.5 12,-461.5 12,-461.5 6,-461.5 0,-455.5 0,-449.5 0,-449.5 0,-335.5 0,-335.5 0,-329.5 6,-323.5 12,-323.5"/>
<text text-anchor="middle" x="76" y="-446.3" font-family="Times,serif" font-size="14.00" fill="#000000">SessionsController</text>
<polyline fill="none" stroke="#000000" points="0,-438.5 152,-438.5 "/>
<text text-anchor="start" x="8" y="-423.3" font-family="Times,serif" font-size="14.00" fill="#000000">create</text>
<text text-anchor="start" x="8" y="-408.3" font-family="Times,serif" font-size="14.00" fill="#000000">delete</text>
<text text-anchor="start" x="8" y="-393.3" font-family="Times,serif" font-size="14.00" fill="#000000">destroy</text>
<text text-anchor="start" x="8" y="-378.3" font-family="Times,serif" font-size="14.00" fill="#000000">new</text>
<polyline fill="none" stroke="#000000" points="0,-370.5 152,-370.5 "/>
<polyline fill="none" stroke="#000000" points="0,-346.5 152,-346.5 "/>
<text text-anchor="start" x="8" y="-331.3" font-family="Times,serif" font-size="14.00" fill="#000000">_layout</text>
</g>
<!-- StoreController -->
<g id="node3" class="node">
<title>StoreController</title>
<path fill="none" stroke="#000000" d="M31,-171.5C31,-171.5 136,-171.5 136,-171.5 142,-171.5 148,-177.5 148,-183.5 148,-183.5 148,-282.5 148,-282.5 148,-288.5 142,-294.5 136,-294.5 136,-294.5 31,-294.5 31,-294.5 25,-294.5 19,-288.5 19,-282.5 19,-282.5 19,-183.5 19,-183.5 19,-177.5 25,-171.5 31,-171.5"/>
<text text-anchor="middle" x="83.5" y="-279.3" font-family="Times,serif" font-size="14.00" fill="#000000">StoreController</text>
<polyline fill="none" stroke="#000000" points="19,-271.5 148,-271.5 "/>
<text text-anchor="start" x="27" y="-256.3" font-family="Times,serif" font-size="14.00" fill="#000000">index</text>
<text text-anchor="start" x="27" y="-241.3" font-family="Times,serif" font-size="14.00" fill="#000000">sort_column</text>
<text text-anchor="start" x="27" y="-226.3" font-family="Times,serif" font-size="14.00" fill="#000000">sort_direction</text>
<polyline fill="none" stroke="#000000" points="19,-218.5 148,-218.5 "/>
<polyline fill="none" stroke="#000000" points="19,-194.5 148,-194.5 "/>
<text text-anchor="start" x="27" y="-179.3" font-family="Times,serif" font-size="14.00" fill="#000000">_layout</text>
</g>
<!-- OrdersController -->
<g id="node4" class="node">
<title>OrdersController</title>
<path fill="none" stroke="#000000" d="M202,-171.5C202,-171.5 367,-171.5 367,-171.5 373,-171.5 379,-177.5 379,-183.5 379,-183.5 379,-387.5 379,-387.5 379,-393.5 373,-399.5 367,-399.5 367,-399.5 202,-399.5 202,-399.5 196,-399.5 190,-393.5 190,-387.5 190,-387.5 190,-183.5 190,-183.5 190,-177.5 196,-171.5 202,-171.5"/>
<text text-anchor="middle" x="284.5" y="-384.3" font-family="Times,serif" font-size="14.00" fill="#000000">OrdersController</text>
<polyline fill="none" stroke="#000000" points="190,-376.5 379,-376.5 "/>
<text text-anchor="start" x="198" y="-361.3" font-family="Times,serif" font-size="14.00" fill="#000000">create</text>
<text text-anchor="start" x="198" y="-346.3" font-family="Times,serif" font-size="14.00" fill="#000000">destroy</text>
<text text-anchor="start" x="198" y="-331.3" font-family="Times,serif" font-size="14.00" fill="#000000">edit</text>
<text text-anchor="start" x="198" y="-316.3" font-family="Times,serif" font-size="14.00" fill="#000000">index</text>
<text text-anchor="start" x="198" y="-301.3" font-family="Times,serif" font-size="14.00" fill="#000000">new</text>
<text text-anchor="start" x="198" y="-286.3" font-family="Times,serif" font-size="14.00" fill="#000000">show</text>
<text text-anchor="start" x="198" y="-271.3" font-family="Times,serif" font-size="14.00" fill="#000000">update</text>
<polyline fill="none" stroke="#000000" points="190,-263.5 379,-263.5 "/>
<polyline fill="none" stroke="#000000" points="190,-239.5 379,-239.5 "/>
<text text-anchor="start" x="198" y="-224.3" font-family="Times,serif" font-size="14.00" fill="#000000">_layout</text>
<text text-anchor="start" x="198" y="-209.3" font-family="Times,serif" font-size="14.00" fill="#000000">ensure_cart_inst_empty</text>
<text text-anchor="start" x="198" y="-194.3" font-family="Times,serif" font-size="14.00" fill="#000000">order_params</text>
<text text-anchor="start" x="198" y="-179.3" font-family="Times,serif" font-size="14.00" fill="#000000">set_order</text>
</g>
<!-- AdminController -->
<g id="node5" class="node">
<title>AdminController</title>
<path fill="none" stroke="#000000" d="M563,-19.5C563,-19.5 676,-19.5 676,-19.5 682,-19.5 688,-25.5 688,-31.5 688,-31.5 688,-100.5 688,-100.5 688,-106.5 682,-112.5 676,-112.5 676,-112.5 563,-112.5 563,-112.5 557,-112.5 551,-106.5 551,-100.5 551,-100.5 551,-31.5 551,-31.5 551,-25.5 557,-19.5 563,-19.5"/>
<text text-anchor="middle" x="619.5" y="-97.3" font-family="Times,serif" font-size="14.00" fill="#000000">AdminController</text>
<polyline fill="none" stroke="#000000" points="551,-89.5 688,-89.5 "/>
<text text-anchor="start" x="559" y="-74.3" font-family="Times,serif" font-size="14.00" fill="#000000">index</text>
<polyline fill="none" stroke="#000000" points="551,-66.5 688,-66.5 "/>
<polyline fill="none" stroke="#000000" points="551,-42.5 688,-42.5 "/>
<text text-anchor="start" x="559" y="-27.3" font-family="Times,serif" font-size="14.00" fill="#000000">_layout</text>
</g>
<!-- UsersController -->
<g id="node6" class="node">
<title>UsersController</title>
<path fill="none" stroke="#000000" d="M259,-437.5C259,-437.5 367,-437.5 367,-437.5 373,-437.5 379,-443.5 379,-449.5 379,-449.5 379,-653.5 379,-653.5 379,-659.5 373,-665.5 367,-665.5 367,-665.5 259,-665.5 259,-665.5 253,-665.5 247,-659.5 247,-653.5 247,-653.5 247,-449.5 247,-449.5 247,-443.5 253,-437.5 259,-437.5"/>
<text text-anchor="middle" x="313" y="-650.3" font-family="Times,serif" font-size="14.00" fill="#000000">UsersController</text>
<polyline fill="none" stroke="#000000" points="247,-642.5 379,-642.5 "/>
<text text-anchor="start" x="255" y="-627.3" font-family="Times,serif" font-size="14.00" fill="#000000">confirm_email</text>
<text text-anchor="start" x="255" y="-612.3" font-family="Times,serif" font-size="14.00" fill="#000000">create</text>
<text text-anchor="start" x="255" y="-597.3" font-family="Times,serif" font-size="14.00" fill="#000000">destroy</text>
<text text-anchor="start" x="255" y="-582.3" font-family="Times,serif" font-size="14.00" fill="#000000">edit</text>
<text text-anchor="start" x="255" y="-567.3" font-family="Times,serif" font-size="14.00" fill="#000000">index</text>
<text text-anchor="start" x="255" y="-552.3" font-family="Times,serif" font-size="14.00" fill="#000000">new</text>
<text text-anchor="start" x="255" y="-537.3" font-family="Times,serif" font-size="14.00" fill="#000000">show</text>
<text text-anchor="start" x="255" y="-522.3" font-family="Times,serif" font-size="14.00" fill="#000000">update</text>
<polyline fill="none" stroke="#000000" points="247,-514.5 379,-514.5 "/>
<polyline fill="none" stroke="#000000" points="247,-490.5 379,-490.5 "/>
<text text-anchor="start" x="255" y="-475.3" font-family="Times,serif" font-size="14.00" fill="#000000">_layout</text>
<text text-anchor="start" x="255" y="-460.3" font-family="Times,serif" font-size="14.00" fill="#000000">set_user</text>
<text text-anchor="start" x="255" y="-445.3" font-family="Times,serif" font-size="14.00" fill="#000000">user_params</text>
</g>
<!-- LineItemsController -->
<g id="node7" class="node">
<title>LineItemsController</title>
<path fill="none" stroke="#000000" d="M430,-152.5C430,-152.5 569,-152.5 569,-152.5 575,-152.5 581,-158.5 581,-164.5 581,-164.5 581,-353.5 581,-353.5 581,-359.5 575,-365.5 569,-365.5 569,-365.5 430,-365.5 430,-365.5 424,-365.5 418,-359.5 418,-353.5 418,-353.5 418,-164.5 418,-164.5 418,-158.5 424,-152.5 430,-152.5"/>
<text text-anchor="middle" x="499.5" y="-350.3" font-family="Times,serif" font-size="14.00" fill="#000000">LineItemsController</text>
<polyline fill="none" stroke="#000000" points="418,-342.5 581,-342.5 "/>
<text text-anchor="start" x="426" y="-327.3" font-family="Times,serif" font-size="14.00" fill="#000000">create</text>
<text text-anchor="start" x="426" y="-312.3" font-family="Times,serif" font-size="14.00" fill="#000000">destroy</text>
<text text-anchor="start" x="426" y="-297.3" font-family="Times,serif" font-size="14.00" fill="#000000">edit</text>
<text text-anchor="start" x="426" y="-282.3" font-family="Times,serif" font-size="14.00" fill="#000000">index</text>
<text text-anchor="start" x="426" y="-267.3" font-family="Times,serif" font-size="14.00" fill="#000000">new</text>
<text text-anchor="start" x="426" y="-252.3" font-family="Times,serif" font-size="14.00" fill="#000000">show</text>
<text text-anchor="start" x="426" y="-237.3" font-family="Times,serif" font-size="14.00" fill="#000000">update</text>
<polyline fill="none" stroke="#000000" points="418,-229.5 581,-229.5 "/>
<polyline fill="none" stroke="#000000" points="418,-205.5 581,-205.5 "/>
<text text-anchor="start" x="426" y="-190.3" font-family="Times,serif" font-size="14.00" fill="#000000">_layout</text>
<text text-anchor="start" x="426" y="-175.3" font-family="Times,serif" font-size="14.00" fill="#000000">line_item_params</text>
<text text-anchor="start" x="426" y="-160.3" font-family="Times,serif" font-size="14.00" fill="#000000">set_line_item</text>
</g>
<!-- ApplicationController -->
<g id="node8" class="node">
<title>ApplicationController</title>
<path fill="none" stroke="#000000" d="M354,-.5C354,-.5 502,-.5 502,-.5 508,-.5 514,-6.5 514,-12.5 514,-12.5 514,-96.5 514,-96.5 514,-102.5 508,-108.5 502,-108.5 502,-108.5 354,-108.5 354,-108.5 348,-108.5 342,-102.5 342,-96.5 342,-96.5 342,-12.5 342,-12.5 342,-6.5 348,-.5 354,-.5"/>
<text text-anchor="middle" x="428" y="-93.3" font-family="Times,serif" font-size="14.00" fill="#000000">ApplicationController</text>
<polyline fill="none" stroke="#000000" points="342,-85.5 514,-85.5 "/>
<polyline fill="none" stroke="#000000" points="342,-61.5 514,-61.5 "/>
<text text-anchor="start" x="350" y="-46.3" font-family="Times,serif" font-size="14.00" fill="#000000">admin</text>
<text text-anchor="start" x="350" y="-31.3" font-family="Times,serif" font-size="14.00" fill="#000000">authorize</text>
<polyline fill="none" stroke="#000000" points="342,-23.5 514,-23.5 "/>
<text text-anchor="start" x="350" y="-8.3" font-family="Times,serif" font-size="14.00" fill="#000000">_layout</text>
</g>
<!-- CartsController -->
<g id="node9" class="node">
<title>CartsController</title>
<path fill="none" stroke="#000000" d="M88,-494.5C88,-494.5 194,-494.5 194,-494.5 200,-494.5 206,-500.5 206,-506.5 206,-506.5 206,-710.5 206,-710.5 206,-716.5 200,-722.5 194,-722.5 194,-722.5 88,-722.5 88,-722.5 82,-722.5 76,-716.5 76,-710.5 76,-710.5 76,-506.5 76,-506.5 76,-500.5 82,-494.5 88,-494.5"/>
<text text-anchor="middle" x="141" y="-707.3" font-family="Times,serif" font-size="14.00" fill="#000000">CartsController</text>
<polyline fill="none" stroke="#000000" points="76,-699.5 206,-699.5 "/>
<text text-anchor="start" x="84" y="-684.3" font-family="Times,serif" font-size="14.00" fill="#000000">create</text>
<text text-anchor="start" x="84" y="-669.3" font-family="Times,serif" font-size="14.00" fill="#000000">destroy</text>
<text text-anchor="start" x="84" y="-654.3" font-family="Times,serif" font-size="14.00" fill="#000000">edit</text>
<text text-anchor="start" x="84" y="-639.3" font-family="Times,serif" font-size="14.00" fill="#000000">index</text>
<text text-anchor="start" x="84" y="-624.3" font-family="Times,serif" font-size="14.00" fill="#000000">new</text>
<text text-anchor="start" x="84" y="-609.3" font-family="Times,serif" font-size="14.00" fill="#000000">show</text>
<text text-anchor="start" x="84" y="-594.3" font-family="Times,serif" font-size="14.00" fill="#000000">update</text>
<polyline fill="none" stroke="#000000" points="76,-586.5 206,-586.5 "/>
<polyline fill="none" stroke="#000000" points="76,-562.5 206,-562.5 "/>
<text text-anchor="start" x="84" y="-547.3" font-family="Times,serif" font-size="14.00" fill="#000000">_layout</text>
<text text-anchor="start" x="84" y="-532.3" font-family="Times,serif" font-size="14.00" fill="#000000">cart_params</text>
<text text-anchor="start" x="84" y="-517.3" font-family="Times,serif" font-size="14.00" fill="#000000">invalid_cart</text>
<text text-anchor="start" x="84" y="-502.3" font-family="Times,serif" font-size="14.00" fill="#000000">set_cart</text>
</g>
<!-- ProductsController -->
<g id="node10" class="node">
<title>ProductsController</title>
<path fill="none" stroke="#000000" d="M430,-399.5C430,-399.5 561,-399.5 561,-399.5 567,-399.5 573,-405.5 573,-411.5 573,-411.5 573,-615.5 573,-615.5 573,-621.5 567,-627.5 561,-627.5 561,-627.5 430,-627.5 430,-627.5 424,-627.5 418,-621.5 418,-615.5 418,-615.5 418,-411.5 418,-411.5 418,-405.5 424,-399.5 430,-399.5"/>
<text text-anchor="middle" x="495.5" y="-612.3" font-family="Times,serif" font-size="14.00" fill="#000000">ProductsController</text>
<polyline fill="none" stroke="#000000" points="418,-604.5 573,-604.5 "/>
<text text-anchor="start" x="426" y="-589.3" font-family="Times,serif" font-size="14.00" fill="#000000">create</text>
<text text-anchor="start" x="426" y="-574.3" font-family="Times,serif" font-size="14.00" fill="#000000">destroy</text>
<text text-anchor="start" x="426" y="-559.3" font-family="Times,serif" font-size="14.00" fill="#000000">edit</text>
<text text-anchor="start" x="426" y="-544.3" font-family="Times,serif" font-size="14.00" fill="#000000">index</text>
<text text-anchor="start" x="426" y="-529.3" font-family="Times,serif" font-size="14.00" fill="#000000">new</text>
<text text-anchor="start" x="426" y="-514.3" font-family="Times,serif" font-size="14.00" fill="#000000">show</text>
<text text-anchor="start" x="426" y="-499.3" font-family="Times,serif" font-size="14.00" fill="#000000">update</text>
<text text-anchor="start" x="426" y="-484.3" font-family="Times,serif" font-size="14.00" fill="#000000">who_bought</text>
<polyline fill="none" stroke="#000000" points="418,-476.5 573,-476.5 "/>
<polyline fill="none" stroke="#000000" points="418,-452.5 573,-452.5 "/>
<text text-anchor="start" x="426" y="-437.3" font-family="Times,serif" font-size="14.00" fill="#000000">_layout</text>
<text text-anchor="start" x="426" y="-422.3" font-family="Times,serif" font-size="14.00" fill="#000000">product_params</text>
<text text-anchor="start" x="426" y="-407.3" font-family="Times,serif" font-size="14.00" fill="#000000">set_product</text>
</g>
</g>
</svg>
