<?xml version="1.0" encoding="UTF-8" standalone="no"?>
<!DOCTYPE svg PUBLIC "-//W3C//DTD SVG 1.1//EN"
 "http://www.w3.org/Graphics/SVG/1.1/DTD/svg11.dtd">
<!-- Generated by graphviz version 2.40.1 (20161225.0304)
 -->
<!-- Title: models_diagram Pages: 1 -->
<svg width="1142pt" height="536pt"
 viewBox="0.00 0.00 1142.00 536.00" xmlns="http://www.w3.org/2000/svg" xmlns:xlink="http://www.w3.org/1999/xlink">
<g id="graph0" class="graph" transform="scale(1 1) rotate(0) translate(4 532)">
<title>models_diagram</title>
<polygon fill="transparent" stroke="transparent" points="-4,4 -4,-532 1138,-532 1138,4 -4,4"/>
<!-- _diagram_info -->
<g id="node1" class="node">
<title>_diagram_info</title>
<text text-anchor="start" x="8" y="-461.6" font-family="Times,serif" font-size="13.00" fill="#000000">Models diagram</text>
<text text-anchor="start" x="8" y="-447.6" font-family="Times,serif" font-size="13.00" fill="#000000">Date: May 28 2018 &#45; 01:47</text>
<text text-anchor="start" x="8" y="-433.6" font-family="Times,serif" font-size="13.00" fill="#000000">Migration version: 20180527175505</text>
<text text-anchor="start" x="8" y="-419.6" font-family="Times,serif" font-size="13.00" fill="#000000">Generated by RailRoady 1.5.3</text>
<text text-anchor="start" x="8" y="-405.6" font-family="Times,serif" font-size="13.00" fill="#000000">http://railroady.prestonlee.com</text>
</g>
<!-- LineItem -->
<g id="node2" class="node">
<title>LineItem</title>
<path fill="none" stroke="#000000" d="M377,-.5C377,-.5 669,-.5 669,-.5 675,-.5 681,-6.5 681,-12.5 681,-12.5 681,-124.5 681,-124.5 681,-130.5 675,-136.5 669,-136.5 669,-136.5 377,-136.5 377,-136.5 371,-136.5 365,-130.5 365,-124.5 365,-124.5 365,-12.5 365,-12.5 365,-6.5 371,-.5 377,-.5"/>
<text text-anchor="middle" x="523" y="-121.3" font-family="Times,serif" font-size="14.00" fill="#000000">LineItem</text>
<polyline fill="none" stroke="#000000" points="365,-113.5 681,-113.5 "/>
<text text-anchor="start" x="373" y="-98.3" font-family="Times,serif" font-size="14.00" fill="#000000">id :bigint</text>
<text text-anchor="start" x="373" y="-83.3" font-family="Times,serif" font-size="14.00" fill="#000000">product_id :bigint</text>
<text text-anchor="start" x="373" y="-68.3" font-family="Times,serif" font-size="14.00" fill="#000000">cart_id :bigint</text>
<text text-anchor="start" x="373" y="-53.3" font-family="Times,serif" font-size="14.00" fill="#000000">created_at :timestamp without time zone</text>
<text text-anchor="start" x="373" y="-38.3" font-family="Times,serif" font-size="14.00" fill="#000000">updated_at :timestamp without time zone</text>
<text text-anchor="start" x="373" y="-23.3" font-family="Times,serif" font-size="14.00" fill="#000000">quantity :integer</text>
<text text-anchor="start" x="373" y="-8.3" font-family="Times,serif" font-size="14.00" fill="#000000">order_id :bigint</text>
</g>
<!-- ApplicationRecord -->
<g id="node3" class="node">
<title>ApplicationRecord</title>
<ellipse fill="none" stroke="#000000" cx="703" cy="-437" rx="96.6831" ry="18"/>
<text text-anchor="middle" x="703" y="-433.3" font-family="Times,serif" font-size="14.00" fill="#000000">ApplicationRecord</text>
</g>
<!-- Order -->
<g id="node4" class="node">
<title>Order</title>
<path fill="none" stroke="#000000" d="M377,-173.5C377,-173.5 669,-173.5 669,-173.5 675,-173.5 681,-179.5 681,-185.5 681,-185.5 681,-297.5 681,-297.5 681,-303.5 675,-309.5 669,-309.5 669,-309.5 377,-309.5 377,-309.5 371,-309.5 365,-303.5 365,-297.5 365,-297.5 365,-185.5 365,-185.5 365,-179.5 371,-173.5 377,-173.5"/>
<text text-anchor="middle" x="523" y="-294.3" font-family="Times,serif" font-size="14.00" fill="#000000">Order</text>
<polyline fill="none" stroke="#000000" points="365,-286.5 681,-286.5 "/>
<text text-anchor="start" x="373" y="-271.3" font-family="Times,serif" font-size="14.00" fill="#000000">id :bigint</text>
<text text-anchor="start" x="373" y="-256.3" font-family="Times,serif" font-size="14.00" fill="#000000">name :character varying</text>
<text text-anchor="start" x="373" y="-241.3" font-family="Times,serif" font-size="14.00" fill="#000000">address :text</text>
<text text-anchor="start" x="373" y="-226.3" font-family="Times,serif" font-size="14.00" fill="#000000">pay_type :integer</text>
<text text-anchor="start" x="373" y="-211.3" font-family="Times,serif" font-size="14.00" fill="#000000">created_at :timestamp without time zone</text>
<text text-anchor="start" x="373" y="-196.3" font-family="Times,serif" font-size="14.00" fill="#000000">updated_at :timestamp without time zone</text>
<text text-anchor="start" x="373" y="-181.3" font-family="Times,serif" font-size="14.00" fill="#000000">email :character varying</text>
</g>
<!-- Order&#45;&gt;LineItem -->
<g id="edge1" class="edge">
<title>Order&#45;&gt;LineItem</title>
<path fill="none" stroke="#4e0138" d="M523,-164.9096C523,-158.8821 523,-152.7895 523,-146.751"/>
<ellipse fill="none" stroke="#4e0138" cx="523" cy="-169.1258" rx="4" ry="4"/>
<polygon fill="#4e0138" stroke="#4e0138" points="523.0001,-146.6608 527.5,-136.6607 523,-141.6608 523,-136.6608 523,-136.6608 523,-136.6608 523,-141.6608 518.5,-136.6608 523.0001,-146.6608 523.0001,-146.6608"/>
</g>
<!-- Product -->
<g id="node5" class="node">
<title>Product</title>
<path fill="none" stroke="#000000" d="M284,-361.5C284,-361.5 576,-361.5 576,-361.5 582,-361.5 588,-367.5 588,-373.5 588,-373.5 588,-500.5 588,-500.5 588,-506.5 582,-512.5 576,-512.5 576,-512.5 284,-512.5 284,-512.5 278,-512.5 272,-506.5 272,-500.5 272,-500.5 272,-373.5 272,-373.5 272,-367.5 278,-361.5 284,-361.5"/>
<text text-anchor="middle" x="430" y="-497.3" font-family="Times,serif" font-size="14.00" fill="#000000">Product</text>
<polyline fill="none" stroke="#000000" points="272,-489.5 588,-489.5 "/>
<text text-anchor="start" x="280" y="-474.3" font-family="Times,serif" font-size="14.00" fill="#000000">id :bigint</text>
<text text-anchor="start" x="280" y="-459.3" font-family="Times,serif" font-size="14.00" fill="#000000">title :character varying</text>
<text text-anchor="start" x="280" y="-444.3" font-family="Times,serif" font-size="14.00" fill="#000000">description :text</text>
<text text-anchor="start" x="280" y="-429.3" font-family="Times,serif" font-size="14.00" fill="#000000">image_url :character varying</text>
<text text-anchor="start" x="280" y="-414.3" font-family="Times,serif" font-size="14.00" fill="#000000">price :numeric(8,2)</text>
<text text-anchor="start" x="280" y="-399.3" font-family="Times,serif" font-size="14.00" fill="#000000">created_at :timestamp without time zone</text>
<text text-anchor="start" x="280" y="-384.3" font-family="Times,serif" font-size="14.00" fill="#000000">updated_at :timestamp without time zone</text>
<text text-anchor="start" x="280" y="-369.3" font-family="Times,serif" font-size="14.00" fill="#000000">genre :integer</text>
</g>
<!-- Product&#45;&gt;LineItem -->
<g id="edge2" class="edge">
<title>Product&#45;&gt;LineItem</title>
<path fill="none" stroke="#0bae6f" d="M375.5753,-354.2807C347.3644,-300.242 324.712,-229.4872 356,-173 361.8907,-162.3649 369.3654,-152.6684 377.8707,-143.855"/>
<ellipse fill="none" stroke="#0bae6f" cx="377.521" cy="-357.9266" rx="4" ry="4"/>
<polygon fill="#0bae6f" stroke="#0bae6f" points="378.0884,-143.6425 388.3882,-139.8787 381.6668,-140.1503 385.2452,-136.6582 385.2452,-136.6582 385.2452,-136.6582 381.6668,-140.1503 382.1023,-133.4376 378.0884,-143.6425 378.0884,-143.6425"/>
</g>
<!-- Product&#45;&gt;Order -->
<g id="edge3" class="edge">
<title>Product&#45;&gt;Order</title>
<path fill="none" stroke="#462b1e" d="M470.375,-352.1257C475.6658,-341.0036 481.0643,-329.6552 486.2899,-318.6701"/>
<polygon fill="#462b1e" stroke="#462b1e" points="470.252,-352.3843 461.8926,-359.4815 468.1041,-356.8994 465.9562,-361.4146 465.9562,-361.4146 465.9562,-361.4146 468.1041,-356.8994 470.0199,-363.3477 470.252,-352.3843 470.252,-352.3843"/>
<polygon fill="#462b1e" stroke="#462b1e" points="486.3369,-318.5712 494.6964,-311.474 488.4848,-314.0561 490.6327,-309.5409 490.6327,-309.5409 490.6327,-309.5409 488.4848,-314.0561 486.5691,-307.6078 486.3369,-318.5712 486.3369,-318.5712"/>
</g>
<!-- User -->
<g id="node6" class="node">
<title>User</title>
<path fill="none" stroke="#000000" d="M830,-346.5C830,-346.5 1122,-346.5 1122,-346.5 1128,-346.5 1134,-352.5 1134,-358.5 1134,-358.5 1134,-515.5 1134,-515.5 1134,-521.5 1128,-527.5 1122,-527.5 1122,-527.5 830,-527.5 830,-527.5 824,-527.5 818,-521.5 818,-515.5 818,-515.5 818,-358.5 818,-358.5 818,-352.5 824,-346.5 830,-346.5"/>
<text text-anchor="middle" x="976" y="-512.3" font-family="Times,serif" font-size="14.00" fill="#000000">User</text>
<polyline fill="none" stroke="#000000" points="818,-504.5 1134,-504.5 "/>
<text text-anchor="start" x="826" y="-489.3" font-family="Times,serif" font-size="14.00" fill="#000000">id :bigint</text>
<text text-anchor="start" x="826" y="-474.3" font-family="Times,serif" font-size="14.00" fill="#000000">name :character varying</text>
<text text-anchor="start" x="826" y="-459.3" font-family="Times,serif" font-size="14.00" fill="#000000">password_digest :character varying</text>
<text text-anchor="start" x="826" y="-444.3" font-family="Times,serif" font-size="14.00" fill="#000000">created_at :timestamp without time zone</text>
<text text-anchor="start" x="826" y="-429.3" font-family="Times,serif" font-size="14.00" fill="#000000">updated_at :timestamp without time zone</text>
<text text-anchor="start" x="826" y="-414.3" font-family="Times,serif" font-size="14.00" fill="#000000">is_admin :boolean</text>
<text text-anchor="start" x="826" y="-399.3" font-family="Times,serif" font-size="14.00" fill="#000000">remember_token :character varying</text>
<text text-anchor="start" x="826" y="-384.3" font-family="Times,serif" font-size="14.00" fill="#000000">email_confirmed :boolean</text>
<text text-anchor="start" x="826" y="-369.3" font-family="Times,serif" font-size="14.00" fill="#000000">confirm_token :character varying</text>
<text text-anchor="start" x="826" y="-354.3" font-family="Times,serif" font-size="14.00" fill="#000000">email :character varying</text>
</g>
<!-- Cart -->
<g id="node7" class="node">
<title>Cart</title>
<path fill="none" stroke="#000000" d="M711,-203.5C711,-203.5 1003,-203.5 1003,-203.5 1009,-203.5 1015,-209.5 1015,-215.5 1015,-215.5 1015,-267.5 1015,-267.5 1015,-273.5 1009,-279.5 1003,-279.5 1003,-279.5 711,-279.5 711,-279.5 705,-279.5 699,-273.5 699,-267.5 699,-267.5 699,-215.5 699,-215.5 699,-209.5 705,-203.5 711,-203.5"/>
<text text-anchor="middle" x="857" y="-264.3" font-family="Times,serif" font-size="14.00" fill="#000000">Cart</text>
<polyline fill="none" stroke="#000000" points="699,-256.5 1015,-256.5 "/>
<text text-anchor="start" x="707" y="-241.3" font-family="Times,serif" font-size="14.00" fill="#000000">id :bigint</text>
<text text-anchor="start" x="707" y="-226.3" font-family="Times,serif" font-size="14.00" fill="#000000">created_at :timestamp without time zone</text>
<text text-anchor="start" x="707" y="-211.3" font-family="Times,serif" font-size="14.00" fill="#000000">updated_at :timestamp without time zone</text>
</g>
<!-- Cart&#45;&gt;LineItem -->
<g id="edge4" class="edge">
<title>Cart&#45;&gt;LineItem</title>
<path fill="none" stroke="#8203b4" d="M776.0857,-199.5893C742.2615,-182.0696 701.9527,-161.1911 663.5574,-141.3037"/>
<ellipse fill="none" stroke="#8203b4" cx="779.737" cy="-201.4805" rx="4" ry="4"/>
<polygon fill="#8203b4" stroke="#8203b4" points="663.2438,-141.1413 656.434,-132.5462 658.804,-138.8416 654.3643,-136.542 654.3643,-136.542 654.3643,-136.542 658.804,-138.8416 652.2946,-140.5378 663.2438,-141.1413 663.2438,-141.1413"/>
</g>
</g>
</svg>
