<?xml version="1.0" encoding="UTF-8" standalone="no"?>
<!DOCTYPE svg PUBLIC "-//W3C//DTD SVG 1.1//EN"
 "http://www.w3.org/Graphics/SVG/1.1/DTD/svg11.dtd">
<!-- Generated by graphviz version 2.40.1 (20161225.0304)
 -->
<!-- Title: models_diagram Pages: 1 -->
<svg width="672pt" height="230pt"
 viewBox="0.00 0.00 672.15 230.00" xmlns="http://www.w3.org/2000/svg" xmlns:xlink="http://www.w3.org/1999/xlink">
<g id="graph0" class="graph" transform="scale(1 1) rotate(0) translate(4 226)">
<title>models_diagram</title>
<polygon fill="transparent" stroke="transparent" points="-4,4 -4,-226 668.1471,-226 668.1471,4 -4,4"/>
<!-- _diagram_info -->
<g id="node1" class="node">
<title>_diagram_info</title>
<text text-anchor="start" x="8" y="-207.6" font-family="Times,serif" font-size="13.00" fill="#000000">Models diagram</text>
<text text-anchor="start" x="8" y="-193.6" font-family="Times,serif" font-size="13.00" fill="#000000">Date: May 28 2018 &#45; 01:47</text>
<text text-anchor="start" x="8" y="-179.6" font-family="Times,serif" font-size="13.00" fill="#000000">Migration version: 20180527175505</text>
<text text-anchor="start" x="8" y="-165.6" font-family="Times,serif" font-size="13.00" fill="#000000">Generated by RailRoady 1.5.3</text>
<text text-anchor="start" x="8" y="-151.6" font-family="Times,serif" font-size="13.00" fill="#000000">http://railroady.prestonlee.com</text>
</g>
<!-- LineItem -->
<g id="node2" class="node">
<title>LineItem</title>
<ellipse fill="none" stroke="#000000" cx="353" cy="-18" rx="53.0913" ry="18"/>
<text text-anchor="middle" x="353" y="-14.3" font-family="Times,serif" font-size="14.00" fill="#000000">LineItem</text>
</g>
<!-- ApplicationRecord -->
<g id="node3" class="node">
<title>ApplicationRecord</title>
<ellipse fill="none" stroke="#000000" cx="483" cy="-183" rx="96.6831" ry="18"/>
<text text-anchor="middle" x="483" y="-179.3" font-family="Times,serif" font-size="14.00" fill="#000000">ApplicationRecord</text>
</g>
<!-- Order -->
<g id="node4" class="node">
<title>Order</title>
<ellipse fill="none" stroke="#000000" cx="353" cy="-90" rx="38.1938" ry="18"/>
<text text-anchor="middle" x="353" y="-86.3" font-family="Times,serif" font-size="14.00" fill="#000000">Order</text>
</g>
<!-- Order&#45;&gt;LineItem -->
<g id="edge1" class="edge">
<title>Order&#45;&gt;LineItem</title>
<path fill="none" stroke="#352849" d="M353,-63.8144C353,-58.2775 353,-52.4053 353,-46.7785"/>
<ellipse fill="none" stroke="#352849" cx="353" cy="-67.8314" rx="4" ry="4"/>
<polygon fill="#352849" stroke="#352849" points="353.0001,-46.4133 357.5,-36.4132 353,-41.4133 353,-36.4133 353,-36.4133 353,-36.4133 353,-41.4133 348.5,-36.4133 353.0001,-46.4133 353.0001,-46.4133"/>
</g>
<!-- Product -->
<g id="node5" class="node">
<title>Product</title>
<ellipse fill="none" stroke="#000000" cx="320" cy="-183" rx="48.1917" ry="18"/>
<text text-anchor="middle" x="320" y="-179.3" font-family="Times,serif" font-size="14.00" fill="#000000">Product</text>
</g>
<!-- Product&#45;&gt;LineItem -->
<g id="edge2" class="edge">
<title>Product&#45;&gt;LineItem</title>
<path fill="none" stroke="#2a9a4f" d="M310.0901,-157.4567C302.6986,-134.4296 295.5255,-99.9891 306,-72 310.1357,-60.949 317.6678,-50.668 325.5085,-42.1056"/>
<ellipse fill="none" stroke="#2a9a4f" cx="311.3985" cy="-161.3089" rx="4" ry="4"/>
<polygon fill="#2a9a4f" stroke="#2a9a4f" points="325.7115,-41.8983 335.9228,-37.9007 329.2093,-38.3254 332.7072,-34.7526 332.7072,-34.7526 332.7072,-34.7526 329.2093,-38.3254 329.4917,-31.6045 325.7115,-41.8983 325.7115,-41.8983"/>
</g>
<!-- Product&#45;&gt;Order -->
<g id="edge3" class="edge">
<title>Product&#45;&gt;Order</title>
<path fill="none" stroke="#952efc" d="M329.7489,-155.5259C334.0169,-143.4977 339.0133,-129.4171 343.2783,-117.3976"/>
<polygon fill="#952efc" stroke="#952efc" points="329.7069,-155.6444 322.1218,-163.5638 328.0348,-160.3565 326.3627,-165.0687 326.3627,-165.0687 326.3627,-165.0687 328.0348,-160.3565 330.6037,-166.5735 329.7069,-155.6444 329.7069,-155.6444"/>
<polygon fill="#952efc" stroke="#952efc" points="343.3126,-117.3006 350.8977,-109.3812 344.9847,-112.5884 346.6568,-107.8763 346.6568,-107.8763 346.6568,-107.8763 344.9847,-112.5884 342.4159,-106.3714 343.3126,-117.3006 343.3126,-117.3006"/>
</g>
<!-- User -->
<g id="node6" class="node">
<title>User</title>
<ellipse fill="none" stroke="#000000" cx="631" cy="-183" rx="33.2948" ry="18"/>
<text text-anchor="middle" x="631" y="-179.3" font-family="Times,serif" font-size="14.00" fill="#000000">User</text>
</g>
<!-- Cart -->
<g id="node7" class="node">
<title>Cart</title>
<ellipse fill="none" stroke="#000000" cx="441" cy="-90" rx="31.6951" ry="18"/>
<text text-anchor="middle" x="441" y="-86.3" font-family="Times,serif" font-size="14.00" fill="#000000">Cart</text>
</g>
<!-- Cart&#45;&gt;LineItem -->
<g id="edge4" class="edge">
<title>Cart&#45;&gt;LineItem</title>
<path fill="none" stroke="#37f774" d="M416.3851,-69.8605C405.4712,-60.931 392.5685,-50.3743 381.2625,-41.1239"/>
<ellipse fill="none" stroke="#37f774" cx="419.6705" cy="-72.5486" rx="4" ry="4"/>
<polygon fill="#37f774" stroke="#37f774" points="381.103,-40.9934 376.213,-31.1782 377.2332,-37.8272 373.3634,-34.661 373.3634,-34.661 373.3634,-34.661 377.2332,-37.8272 370.5139,-38.1438 381.103,-40.9934 381.103,-40.9934"/>
</g>
</g>
</svg>
